<svg width="40" height="40" viewBox="0 0 40 40" fill="none" xmlns="http://www.w3.org/2000/svg">
<path d="M20.0002 3.3335C29.2052 3.3335 36.6668 10.7952 36.6668 20.0002C36.6668 29.2052 29.2052 36.6668 20.0002 36.6668C10.7952 36.6668 3.3335 29.2052 3.3335 20.0002C3.3335 10.7952 10.7952 3.3335 20.0002 3.3335ZM20.0002 26.6668C19.5581 26.6668 19.1342 26.8424 18.8217 27.155C18.5091 27.4675 18.3335 27.8915 18.3335 28.3335C18.3335 28.7755 18.5091 29.1994 18.8217 29.512C19.1342 29.8246 19.5581 30.0002 20.0002 30.0002C20.4422 30.0002 20.8661 29.8246 21.1787 29.512C21.4912 29.1994 21.6668 28.7755 21.6668 28.3335C21.6668 27.8915 21.4912 27.4675 21.1787 27.155C20.8661 26.8424 20.4422 26.6668 20.0002 26.6668ZM20.0002 10.8335C18.3978 10.8335 16.8611 11.47 15.7281 12.6031C14.595 13.7361 13.9585 15.2728 13.9585 16.8752C13.9585 17.3172 14.1341 17.7411 14.4467 18.0537C14.7592 18.3662 15.1831 18.5418 15.6252 18.5418C16.0672 18.5418 16.4911 18.3662 16.8037 18.0537C17.1162 17.7411 17.2918 17.3172 17.2918 16.8752C17.2924 16.3836 17.4267 15.9014 17.6805 15.4803C17.9342 15.0592 18.2978 14.7152 18.7322 14.485C19.1666 14.2549 19.6554 14.1473 20.1463 14.1738C20.6372 14.2003 21.1116 14.36 21.5187 14.6356C21.9257 14.9113 22.2501 15.2925 22.457 15.7384C22.6639 16.1844 22.7455 16.6783 22.693 17.1671C22.6406 17.6559 22.4561 18.1212 22.1594 18.5131C21.8626 18.905 21.4648 19.2088 21.0085 19.3918C19.8818 19.8418 18.3335 20.9952 18.3335 22.9168V23.3335C18.3335 23.7755 18.5091 24.1994 18.8217 24.512C19.1342 24.8246 19.5581 25.0002 20.0002 25.0002C20.4422 25.0002 20.8661 24.8246 21.1787 24.512C21.4912 24.1994 21.6668 23.7755 21.6668 23.3335C21.6668 22.9268 21.7502 22.7235 22.1018 22.5502L22.2468 22.4835C23.5482 21.96 24.6269 21.0001 25.2981 19.7684C25.9692 18.5366 26.191 17.1098 25.9254 15.7325C25.6598 14.3551 24.9233 13.1131 23.8422 12.2193C22.7612 11.3255 21.4029 10.8355 20.0002 10.8335Z" fill="#7B7B7B"/>
</svg>
