<svg width="40" height="40" viewBox="0 0 40 40" fill="none" xmlns="http://www.w3.org/2000/svg">
<path d="M21.1785 3.82147L36.1785 18.8215C37.2285 19.8715 36.4851 21.6665 35.0001 21.6665H33.3335V31.6665C33.3335 32.9926 32.8067 34.2643 31.869 35.202C30.9313 36.1397 29.6596 36.6665 28.3335 36.6665H26.6668V24.9998C26.6669 23.7245 26.1796 22.4973 25.3047 21.5694C24.4297 20.6415 23.2333 20.083 21.9601 20.0081L21.6668 19.9998H18.3335C17.0074 19.9998 15.7356 20.5266 14.7979 21.4643C13.8603 22.402 13.3335 23.6737 13.3335 24.9998V36.6665H11.6668C10.3407 36.6665 9.06896 36.1397 8.13128 35.202C7.1936 34.2643 6.66681 32.9926 6.66681 31.6665V21.6665H5.00015C3.51681 21.6665 2.77181 19.8715 3.82181 18.8215L18.8218 3.82147C19.1344 3.50902 19.5582 3.3335 20.0001 3.3335C20.4421 3.3335 20.8659 3.50902 21.1785 3.82147ZM21.6668 23.3331C22.1088 23.3331 22.5328 23.5087 22.8453 23.8213C23.1579 24.1339 23.3335 24.5578 23.3335 24.9998V36.6665H16.6668V24.9998C16.6669 24.5916 16.8167 24.1976 17.088 23.8925C17.3593 23.5875 17.7331 23.3926 18.1385 23.3448L18.3335 23.3331H21.6668Z" fill="#7B7B7B"/>
</svg>
