<svg width="41" height="40" viewBox="0 0 41 40" fill="none" xmlns="http://www.w3.org/2000/svg">
<path fill-rule="evenodd" clip-rule="evenodd" d="M13.6668 11.6667C13.6668 9.89856 14.3692 8.20286 15.6195 6.95262C16.8697 5.70238 18.5654 5 20.3335 5C22.1016 5 23.7973 5.70238 25.0475 6.95262C26.2978 8.20286 27.0002 9.89856 27.0002 11.6667C27.0002 13.4348 26.2978 15.1305 25.0475 16.3807C23.7973 17.631 22.1016 18.3333 20.3335 18.3333C18.5654 18.3333 16.8697 17.631 15.6195 16.3807C14.3692 15.1305 13.6668 13.4348 13.6668 11.6667ZM13.6668 21.6667C11.4567 21.6667 9.33708 22.5446 7.77427 24.1074C6.21147 25.6702 5.3335 27.7899 5.3335 30C5.3335 31.3261 5.86028 32.5979 6.79796 33.5355C7.73564 34.4732 9.00741 35 10.3335 35H30.3335C31.6596 35 32.9313 34.4732 33.869 33.5355C34.8067 32.5979 35.3335 31.3261 35.3335 30C35.3335 27.7899 34.4555 25.6702 32.8927 24.1074C31.3299 22.5446 29.2103 21.6667 27.0002 21.6667H13.6668Z" fill="#7B7B7B"/>
</svg>
