<svg width="41" height="40" viewBox="0 0 41 40" fill="none" xmlns="http://www.w3.org/2000/svg">
<path fill-rule="evenodd" clip-rule="evenodd" d="M17.3491 2.49992H22.9241C23.7641 2.48742 24.5866 2.76242 25.2491 3.27992C25.9166 3.80492 26.3791 4.54242 26.5491 5.37242L27.0366 7.70992C27.2483 7.82325 27.4566 7.93992 27.6616 8.05992L30.0241 7.28492C30.5101 7.12806 31.0234 7.07351 31.5315 7.12471C32.0396 7.17591 32.5317 7.33175 32.9766 7.58242C33.5266 7.89242 33.9891 8.33742 34.3116 8.88242L37.1241 13.5224C37.5788 14.2414 37.7581 15.1006 37.629 15.9414C37.4999 16.7822 37.071 17.548 36.4216 18.0974H36.4166L34.5616 19.6799V20.3249L36.3941 21.9574C37.031 22.4979 37.4552 23.247 37.5912 24.0712C37.7272 24.8953 37.5661 25.741 37.1366 26.4574L34.4116 31.1074V31.1124C34.0873 31.655 33.6277 32.1041 33.0777 32.4157C32.5277 32.7273 31.9062 32.8907 31.2741 32.8899C30.8832 32.892 30.4943 32.833 30.1216 32.7149L30.1091 32.7099L27.7666 31.9374C27.5583 32.0608 27.3466 32.1783 27.1316 32.2899L26.6466 34.6249C26.4754 35.4553 26.0147 36.1978 25.3466 36.7199C24.6824 37.2395 23.8598 37.5149 23.0166 37.4999H17.3966C16.5552 37.5138 15.7345 37.2385 15.0716 36.7199C14.4041 36.1985 13.9434 35.4569 13.7716 34.6274L13.2841 32.2874C13.073 32.1757 12.8646 32.059 12.6591 31.9374L10.2966 32.7124C9.8106 32.8693 9.29737 32.9238 8.78924 32.8726C8.28111 32.8214 7.78908 32.6656 7.34412 32.4149C6.79337 32.1076 6.33301 31.6611 6.00912 31.1199L3.19412 26.4699C2.75764 25.7655 2.58329 24.9298 2.70171 24.1096C2.82012 23.2894 3.22372 22.5371 3.84162 21.9849L5.70912 19.6299L3.92662 18.0424C3.28891 17.5013 2.86435 16.7512 2.72879 15.9259C2.59323 15.1006 2.7555 14.2541 3.18662 13.5374L3.19162 13.5324L6.00912 8.88242C6.32869 8.34489 6.78187 7.89918 7.32464 7.58859C7.8674 7.278 8.48128 7.1131 9.10662 7.10992C9.48329 7.08992 9.85496 7.12575 10.2216 7.21742L10.2766 7.23242L12.6141 8.05492C12.8191 7.93492 13.0275 7.81992 13.2391 7.70992L13.7241 5.37492C13.8953 4.54452 14.3561 3.802 15.0241 3.27992C15.6841 2.76242 16.5091 2.48742 17.3491 2.49992ZM20.1666 14.9999C18.8405 14.9999 17.5688 15.5267 16.6311 16.4644C15.6934 17.4021 15.1666 18.6738 15.1666 19.9999C15.1666 21.326 15.6934 22.5978 16.6311 23.5355C17.5688 24.4731 18.8405 24.9999 20.1666 24.9999C21.4927 24.9999 22.7645 24.4731 23.7022 23.5355C24.6398 22.5978 25.1666 21.326 25.1666 19.9999C25.1666 18.6738 24.6398 17.4021 23.7022 16.4644C22.7645 15.5267 21.4927 14.9999 20.1666 14.9999ZM12.6666 19.9999C12.6666 18.0108 13.4568 16.1031 14.8633 14.6966C16.2698 13.2901 18.1775 12.4999 20.1666 12.4999C22.1557 12.4999 24.0634 13.2901 25.4699 14.6966C26.8764 16.1031 27.6666 18.0108 27.6666 19.9999C27.6666 21.989 26.8764 23.8967 25.4699 25.3032C24.0634 26.7097 22.1557 27.4999 20.1666 27.4999C18.1775 27.4999 16.2698 26.7097 14.8633 25.3032C13.4568 23.8967 12.6666 21.989 12.6666 19.9999Z" fill="#7B7B7B"/>
</svg>
